<mxfile host="Electron" agent="Mozilla/5.0 (X11; Linux x86_64) AppleWebKit/537.36 (KHTML, like Gecko) draw.io/26.1.1 Chrome/132.0.6834.210 Electron/34.3.3 Safari/537.36" version="26.1.1">
  <diagram name="Page-1" id="wYunNf4wJnuRDtcf2oez">
    <mxGraphModel dx="3965" dy="1329" grid="1" gridSize="10" guides="1" tooltips="1" connect="1" arrows="1" fold="1" page="1" pageScale="1" pageWidth="850" pageHeight="1100" math="0" shadow="0">
      <root>
        <mxCell id="0" />
        <mxCell id="1" parent="0" />
        <mxCell id="NlwHcqZEmKEYxtnLvIcq-23" value="body" style="rounded=0;whiteSpace=wrap;html=1;strokeColor=default;align=center;verticalAlign=top;fontFamily=Helvetica;fontSize=27;fontColor=default;fillColor=default;" parent="1" vertex="1">
          <mxGeometry x="-160" y="20" width="1370" height="1060" as="geometry" />
        </mxCell>
        <mxCell id="NlwHcqZEmKEYxtnLvIcq-56" style="edgeStyle=orthogonalEdgeStyle;rounded=0;orthogonalLoop=1;jettySize=auto;html=1;fontFamily=Helvetica;fontSize=12;fontColor=default;" parent="1" source="NlwHcqZEmKEYxtnLvIcq-15" target="NlwHcqZEmKEYxtnLvIcq-2" edge="1">
          <mxGeometry relative="1" as="geometry">
            <Array as="points">
              <mxPoint x="827" y="709" />
              <mxPoint x="827" y="709" />
            </Array>
          </mxGeometry>
        </mxCell>
        <mxCell id="NlwHcqZEmKEYxtnLvIcq-15" value="head" style="rounded=0;whiteSpace=wrap;html=1;verticalAlign=top;fontSize=27;" parent="1" vertex="1">
          <mxGeometry x="-125" y="79" width="1300" height="580" as="geometry" />
        </mxCell>
        <mxCell id="NlwHcqZEmKEYxtnLvIcq-6" value="brain" style="rounded=0;whiteSpace=wrap;html=1;verticalAlign=top;fontSize=27;" parent="1" vertex="1">
          <mxGeometry x="25" y="149" width="1000" height="360" as="geometry" />
        </mxCell>
        <mxCell id="NlwHcqZEmKEYxtnLvIcq-37" style="edgeStyle=orthogonalEdgeStyle;rounded=0;orthogonalLoop=1;jettySize=auto;html=1;entryX=1;entryY=0.5;entryDx=0;entryDy=0;fontFamily=Helvetica;fontSize=12;fontColor=default;" parent="1" source="NlwHcqZEmKEYxtnLvIcq-12" target="NlwHcqZEmKEYxtnLvIcq-13" edge="1">
          <mxGeometry relative="1" as="geometry" />
        </mxCell>
        <mxCell id="NlwHcqZEmKEYxtnLvIcq-12" value="language_center" style="rounded=0;whiteSpace=wrap;html=1;" parent="1" vertex="1">
          <mxGeometry x="845" y="429" width="120" height="60" as="geometry" />
        </mxCell>
        <mxCell id="NlwHcqZEmKEYxtnLvIcq-34" style="edgeStyle=orthogonalEdgeStyle;rounded=0;orthogonalLoop=1;jettySize=auto;html=1;exitX=1;exitY=0.5;exitDx=0;exitDy=0;fontFamily=Helvetica;fontSize=12;fontColor=default;" parent="1" source="NlwHcqZEmKEYxtnLvIcq-13" target="NlwHcqZEmKEYxtnLvIcq-12" edge="1">
          <mxGeometry relative="1" as="geometry" />
        </mxCell>
        <mxCell id="NlwHcqZEmKEYxtnLvIcq-36" style="edgeStyle=orthogonalEdgeStyle;rounded=0;orthogonalLoop=1;jettySize=auto;html=1;exitX=1;exitY=0.5;exitDx=0;exitDy=0;entryX=0;entryY=0.5;entryDx=0;entryDy=0;fontFamily=Helvetica;fontSize=12;fontColor=default;" parent="1" source="NlwHcqZEmKEYxtnLvIcq-13" target="NlwHcqZEmKEYxtnLvIcq-12" edge="1">
          <mxGeometry relative="1" as="geometry" />
        </mxCell>
        <mxCell id="NlwHcqZEmKEYxtnLvIcq-38" style="edgeStyle=orthogonalEdgeStyle;rounded=0;orthogonalLoop=1;jettySize=auto;html=1;exitX=0.75;exitY=0;exitDx=0;exitDy=0;entryX=0.75;entryY=0;entryDx=0;entryDy=0;fontFamily=Helvetica;fontSize=12;fontColor=default;" parent="1" source="NlwHcqZEmKEYxtnLvIcq-13" target="NlwHcqZEmKEYxtnLvIcq-13" edge="1">
          <mxGeometry relative="1" as="geometry" />
        </mxCell>
        <mxCell id="NlwHcqZEmKEYxtnLvIcq-45" style="edgeStyle=orthogonalEdgeStyle;rounded=0;orthogonalLoop=1;jettySize=auto;html=1;entryX=0.5;entryY=0;entryDx=0;entryDy=0;fontFamily=Helvetica;fontSize=12;fontColor=default;" parent="1" source="NlwHcqZEmKEYxtnLvIcq-13" target="NlwHcqZEmKEYxtnLvIcq-5" edge="1">
          <mxGeometry relative="1" as="geometry" />
        </mxCell>
        <mxCell id="NlwHcqZEmKEYxtnLvIcq-50" style="edgeStyle=orthogonalEdgeStyle;rounded=0;orthogonalLoop=1;jettySize=auto;html=1;fontFamily=Helvetica;fontSize=12;fontColor=default;" parent="1" source="NlwHcqZEmKEYxtnLvIcq-13" target="NlwHcqZEmKEYxtnLvIcq-17" edge="1">
          <mxGeometry relative="1" as="geometry">
            <Array as="points">
              <mxPoint x="520" y="389" />
              <mxPoint x="400" y="389" />
            </Array>
          </mxGeometry>
        </mxCell>
        <mxCell id="NlwHcqZEmKEYxtnLvIcq-54" style="edgeStyle=orthogonalEdgeStyle;rounded=0;orthogonalLoop=1;jettySize=auto;html=1;exitX=1;exitY=0;exitDx=0;exitDy=0;fontFamily=Helvetica;fontSize=12;fontColor=default;" parent="1" source="NlwHcqZEmKEYxtnLvIcq-13" target="NlwHcqZEmKEYxtnLvIcq-9" edge="1">
          <mxGeometry relative="1" as="geometry">
            <Array as="points">
              <mxPoint x="580" y="360" />
              <mxPoint x="580" y="360" />
            </Array>
          </mxGeometry>
        </mxCell>
        <mxCell id="NlwHcqZEmKEYxtnLvIcq-55" style="edgeStyle=orthogonalEdgeStyle;rounded=0;orthogonalLoop=1;jettySize=auto;html=1;entryX=1;entryY=0.5;entryDx=0;entryDy=0;fontFamily=Helvetica;fontSize=12;fontColor=default;" parent="1" source="NlwHcqZEmKEYxtnLvIcq-13" target="NlwHcqZEmKEYxtnLvIcq-5" edge="1">
          <mxGeometry relative="1" as="geometry">
            <Array as="points">
              <mxPoint x="520" y="925" />
            </Array>
          </mxGeometry>
        </mxCell>
        <mxCell id="NlwHcqZEmKEYxtnLvIcq-13" value="prefrontal_cortex&lt;div&gt;(executive_functions)&lt;/div&gt;" style="rounded=0;whiteSpace=wrap;html=1;" parent="1" vertex="1">
          <mxGeometry x="460" y="429" width="120" height="60" as="geometry" />
        </mxCell>
        <mxCell id="NlwHcqZEmKEYxtnLvIcq-57" style="edgeStyle=orthogonalEdgeStyle;rounded=0;orthogonalLoop=1;jettySize=auto;html=1;fontFamily=Helvetica;fontSize=12;fontColor=default;" parent="1" edge="1">
          <mxGeometry relative="1" as="geometry">
            <mxPoint x="1105" y="180" as="sourcePoint" />
            <mxPoint x="520" y="420" as="targetPoint" />
            <Array as="points">
              <mxPoint x="1105" y="391" />
              <mxPoint x="520" y="391" />
            </Array>
          </mxGeometry>
        </mxCell>
        <mxCell id="NlwHcqZEmKEYxtnLvIcq-16" value="ears" style="ellipse;whiteSpace=wrap;html=1;" parent="1" vertex="1">
          <mxGeometry x="1045" y="109" width="120" height="80" as="geometry" />
        </mxCell>
        <mxCell id="NlwHcqZEmKEYxtnLvIcq-17" value="mouth" style="ellipse;whiteSpace=wrap;html=1;" parent="1" vertex="1">
          <mxGeometry x="340" y="549" width="120" height="80" as="geometry" />
        </mxCell>
        <mxCell id="NlwHcqZEmKEYxtnLvIcq-31" style="edgeStyle=orthogonalEdgeStyle;rounded=0;orthogonalLoop=1;jettySize=auto;html=1;exitX=0.5;exitY=1;exitDx=0;exitDy=0;entryX=0;entryY=0.5;entryDx=0;entryDy=0;fontFamily=Helvetica;fontSize=12;fontColor=default;" parent="1" source="NlwHcqZEmKEYxtnLvIcq-18" target="NlwHcqZEmKEYxtnLvIcq-13" edge="1">
          <mxGeometry relative="1" as="geometry" />
        </mxCell>
        <mxCell id="NlwHcqZEmKEYxtnLvIcq-18" value="eyes" style="ellipse;whiteSpace=wrap;html=1;" parent="1" vertex="1">
          <mxGeometry x="-95" y="89" width="120" height="80" as="geometry" />
        </mxCell>
        <mxCell id="NlwHcqZEmKEYxtnLvIcq-47" style="edgeStyle=orthogonalEdgeStyle;rounded=0;orthogonalLoop=1;jettySize=auto;html=1;fontFamily=Helvetica;fontSize=12;fontColor=default;" parent="1" source="NlwHcqZEmKEYxtnLvIcq-2" target="NlwHcqZEmKEYxtnLvIcq-15" edge="1">
          <mxGeometry relative="1" as="geometry">
            <Array as="points">
              <mxPoint x="827" y="719" />
              <mxPoint x="827" y="719" />
            </Array>
          </mxGeometry>
        </mxCell>
        <mxCell id="NlwHcqZEmKEYxtnLvIcq-2" value="heart.py" style="rounded=0;whiteSpace=wrap;html=1;" parent="1" vertex="1">
          <mxGeometry x="775" y="789" width="104.62" height="70" as="geometry" />
        </mxCell>
        <mxCell id="NlwHcqZEmKEYxtnLvIcq-46" style="edgeStyle=orthogonalEdgeStyle;rounded=0;orthogonalLoop=1;jettySize=auto;html=1;entryX=0.5;entryY=1;entryDx=0;entryDy=0;fontFamily=Helvetica;fontSize=12;fontColor=default;" parent="1" source="NlwHcqZEmKEYxtnLvIcq-5" target="NlwHcqZEmKEYxtnLvIcq-13" edge="1">
          <mxGeometry relative="1" as="geometry" />
        </mxCell>
        <mxCell id="NlwHcqZEmKEYxtnLvIcq-5" value="tool_belt" style="rounded=0;whiteSpace=wrap;html=1;verticalAlign=top;fontSize=27;" parent="1" vertex="1">
          <mxGeometry x="-135" y="850" width="539" height="149" as="geometry" />
        </mxCell>
        <mxCell id="NlwHcqZEmKEYxtnLvIcq-26" value="get_cpu_load.py" style="shape=process;whiteSpace=wrap;html=1;backgroundOutline=1;rounded=0;strokeColor=default;align=center;verticalAlign=middle;fontFamily=Helvetica;fontSize=12;fontColor=default;fillColor=default;" parent="1" vertex="1">
          <mxGeometry x="84" y="925" width="120" height="60" as="geometry" />
        </mxCell>
        <mxCell id="NlwHcqZEmKEYxtnLvIcq-27" value="get_memory_info.py" style="shape=process;whiteSpace=wrap;html=1;backgroundOutline=1;rounded=0;strokeColor=default;align=center;verticalAlign=middle;fontFamily=Helvetica;fontSize=12;fontColor=default;fillColor=default;" parent="1" vertex="1">
          <mxGeometry x="-105.5" y="925" width="150" height="60" as="geometry" />
        </mxCell>
        <mxCell id="NlwHcqZEmKEYxtnLvIcq-52" style="edgeStyle=orthogonalEdgeStyle;rounded=0;orthogonalLoop=1;jettySize=auto;html=1;entryX=1;entryY=0;entryDx=0;entryDy=0;fontFamily=Helvetica;fontSize=12;fontColor=default;" parent="1" source="NlwHcqZEmKEYxtnLvIcq-9" target="NlwHcqZEmKEYxtnLvIcq-13" edge="1">
          <mxGeometry relative="1" as="geometry">
            <Array as="points">
              <mxPoint x="580" y="360" />
              <mxPoint x="580" y="360" />
            </Array>
          </mxGeometry>
        </mxCell>
        <mxCell id="NlwHcqZEmKEYxtnLvIcq-9" value="memory" style="rounded=0;whiteSpace=wrap;html=1;container=0;" parent="1" vertex="1">
          <mxGeometry x="64" y="229" width="930" height="100" as="geometry" />
        </mxCell>
        <mxCell id="NlwHcqZEmKEYxtnLvIcq-28" value="get_diskio&lt;span style=&quot;background-color: transparent; color: light-dark(rgb(0, 0, 0), rgb(255, 255, 255));&quot;&gt;.py&lt;/span&gt;" style="shape=process;whiteSpace=wrap;html=1;backgroundOutline=1;rounded=0;strokeColor=default;align=center;verticalAlign=middle;fontFamily=Helvetica;fontSize=12;fontColor=default;fillColor=default;" parent="1" vertex="1">
          <mxGeometry x="254.5" y="925" width="120" height="60" as="geometry" />
        </mxCell>
        <mxCell id="NlwHcqZEmKEYxtnLvIcq-7" value="long_term_memory" style="ellipse;whiteSpace=wrap;html=1;container=0;" parent="1" vertex="1">
          <mxGeometry x="827" y="239" width="120" height="80" as="geometry" />
        </mxCell>
        <mxCell id="NlwHcqZEmKEYxtnLvIcq-39" style="edgeStyle=orthogonalEdgeStyle;rounded=0;orthogonalLoop=1;jettySize=auto;html=1;exitX=0.5;exitY=1;exitDx=0;exitDy=0;entryX=0.5;entryY=1;entryDx=0;entryDy=0;fontFamily=Helvetica;fontSize=12;fontColor=default;" parent="1" source="NlwHcqZEmKEYxtnLvIcq-8" target="NlwHcqZEmKEYxtnLvIcq-8" edge="1">
          <mxGeometry relative="1" as="geometry" />
        </mxCell>
        <mxCell id="NlwHcqZEmKEYxtnLvIcq-8" value="short_term_memory" style="ellipse;whiteSpace=wrap;html=1;container=0;" parent="1" vertex="1">
          <mxGeometry x="114" y="239" width="120" height="80" as="geometry" />
        </mxCell>
        <mxCell id="sEExIcS7F7hwIhwTfrS6-32" value="memory_archive" style="ellipse;whiteSpace=wrap;html=1;" vertex="1" parent="1">
          <mxGeometry x="305" y="239" width="120" height="80" as="geometry" />
        </mxCell>
        <mxCell id="sEExIcS7F7hwIhwTfrS6-33" value="conversation_log" style="ellipse;whiteSpace=wrap;html=1;" vertex="1" parent="1">
          <mxGeometry x="650" y="239" width="120" height="80" as="geometry" />
        </mxCell>
      </root>
    </mxGraphModel>
  </diagram>
</mxfile>
